<svg id="Layer_1" data-name="Layer 1" xmlns="http://www.w3.org/2000/svg" xmlns:xlink="http://www.w3.org/1999/xlink" viewBox="0 0 1385.71 445.5"><defs><style>.cls-1{font-size:286px;}.cls-1,.cls-3{fill:#2e47b7;font-family:Barcelona-2013-By-HD, "Barcelona 2013 By HD";}.cls-2,.cls-5{fill:none;}.cls-2{stroke:#2e47b7;stroke-miterlimit:10;stroke-width:9px;}.cls-3{font-size:162px;}.cls-4{fill:url(#linear-gradient);}.cls-6{fill:url(#linear-gradient-2);}.cls-7{fill:url(#linear-gradient-3);}.cls-8{fill:url(#linear-gradient-4);}.cls-9{fill:url(#linear-gradient-5);}.cls-10{fill:url(#linear-gradient-6);}.cls-11{fill:url(#linear-gradient-7);}</style><linearGradient id="linear-gradient" x1="333.6" y1="591.71" x2="71.77" y2="785.7" gradientTransform="matrix(1, 0, 0, -1, 0, 1502)" gradientUnits="userSpaceOnUse"><stop offset="0" stop-color="#5075ea"/><stop offset="1" stop-color="#073aaa"/></linearGradient><linearGradient id="linear-gradient-2" x1="50.96" y1="837.79" x2="395.11" y2="973.2" gradientTransform="matrix(1, 0, 0, -1, 0, 1502)" gradientUnits="userSpaceOnUse"><stop offset="0" stop-color="#5075ea"/><stop offset="0.32" stop-color="#325dcf"/><stop offset="0.71" stop-color="#1343b4"/><stop offset="0.93" stop-color="#073aaa"/></linearGradient><linearGradient id="linear-gradient-3" x1="411.72" y1="796.15" x2="86.88" y2="794.92" gradientTransform="matrix(1, 0, 0, -1, 0, 1502)" gradientUnits="userSpaceOnUse"><stop offset="0" stop-color="#5075ea"/><stop offset="0.03" stop-color="#466de2"/><stop offset="0.12" stop-color="#2b57c9"/><stop offset="0.21" stop-color="#1747b8"/><stop offset="0.3" stop-color="#0b3dad"/><stop offset="0.39" stop-color="#073aaa"/><stop offset="0.89" stop-color="#073aaa"/><stop offset="0.92" stop-color="#073aaa"/></linearGradient><linearGradient id="linear-gradient-4" x1="411.12" y1="796" x2="86.27" y2="794.76" gradientTransform="matrix(1, 0, 0, -1, 0, 1502)" gradientUnits="userSpaceOnUse"><stop offset="0" stop-color="#2a4feb"/><stop offset="0.08" stop-color="#254ce2"/><stop offset="0.49" stop-color="#0f3fb9"/><stop offset="0.69" stop-color="#073aaa"/><stop offset="0.7" stop-color="#073aaa"/></linearGradient><linearGradient id="linear-gradient-5" x1="411.12" y1="795.86" x2="86.28" y2="794.63" gradientTransform="matrix(1, 0, 0, -1, 0, 1502)" gradientUnits="userSpaceOnUse"><stop offset="0" stop-color="#2a4feb"/><stop offset="0.11" stop-color="#254ce2"/><stop offset="0.65" stop-color="#0f3fb9"/><stop offset="0.93" stop-color="#073aaa"/><stop offset="1" stop-color="#073aaa"/></linearGradient><linearGradient id="linear-gradient-6" x1="411.12" y1="795.72" x2="86.28" y2="794.49" xlink:href="#linear-gradient-5"/><linearGradient id="linear-gradient-7" x1="411.12" y1="795.6" x2="86.28" y2="794.37" gradientTransform="matrix(1, 0, 0, -1, 0, 1502)" gradientUnits="userSpaceOnUse"><stop offset="0" stop-color="#2a4feb"/><stop offset="0.11" stop-color="#254ce2"/><stop offset="0.65" stop-color="#0f3fb9"/><stop offset="0.93" stop-color="#073aaa"/></linearGradient></defs><text class="cls-1" transform="translate(359.2 243.13)">castplus</text><line class="cls-2" x1="370.37" y1="268.62" x2="1376.11" y2="268.62"/><text class="cls-3" transform="translate(364.27 415.13)">the podcast app</text><path class="cls-4" d="M386.92,898.69H239A187.3,187.3,0,0,1,62.21,773a94.45,94.45,0,0,1-.7-11.47,92.57,92.57,0,0,1,87.22-92.43,99.81,99.81,0,0,0,33.86,124.84L177.37,806l-7.94,18.32v0l-.18.43a2.8,2.8,0,0,0-.18,1,3.09,3.09,0,0,0,3.08,3.08,3.46,3.46,0,0,0,.78-.09l.78-.33L192,820.89l25.5-10.59.15-.06h0l1.72-.72s.06,0,.09,0a91.85,91.85,0,0,0,12.83,1.69c2.23.15,4.5.24,6.76.24h60.6a87.29,87.29,0,0,1,87.3,87.24Z" transform="translate(-51.67 -483.53)"/><line class="cls-5" x1="123.64" y1="344.84" x2="122.82" y2="345.18"/><path class="cls-6" d="M386.71,525.78A87,87,0,0,1,369,578.5a93.51,93.51,0,0,1-7.85,9,87,87,0,0,1-61.74,25.56h-60.6a99.71,99.71,0,0,0-85,47.5,102.24,102.24,0,0,0-99.92,81,187.4,187.4,0,0,1-2.21-28.72c0-103.33,83.78-187.11,187.11-187.11Z" transform="translate(-51.67 -483.53)"/><line class="cls-5" x1="119.32" y1="340.77" x2="119.14" y2="341.19"/><line class="cls-5" x1="123.64" y1="344.84" x2="122.82" y2="345.18"/><path class="cls-7" d="M203.89,720.07h0a8.39,8.39,0,0,1-8.39-8.39V701.6a8.39,8.39,0,0,1,8.39-8.39h0a8.39,8.39,0,0,1,8.39,8.39v10.08A8.37,8.37,0,0,1,203.89,720.07Z" transform="translate(-51.67 -483.53)"/><path class="cls-8" d="M239.83,751.94h0a8.4,8.4,0,0,1-8.39-8.39V669.76a8.39,8.39,0,0,1,8.39-8.39h0a8.39,8.39,0,0,1,8.39,8.39v73.79A8.41,8.41,0,0,1,239.83,751.94Z" transform="translate(-51.67 -483.53)"/><path class="cls-9" d="M275.78,740.08h0a8.39,8.39,0,0,1-8.39-8.39V681.62a8.39,8.39,0,0,1,8.39-8.39h0a8.39,8.39,0,0,1,8.39,8.39v50.07A8.44,8.44,0,0,1,275.78,740.08Z" transform="translate(-51.67 -483.53)"/><path class="cls-10" d="M311.69,768.11h0a8.39,8.39,0,0,1-8.39-8.39V653.59a8.39,8.39,0,0,1,8.39-8.39h0a8.39,8.39,0,0,1,8.39,8.39V759.72A8.39,8.39,0,0,1,311.69,768.11Z" transform="translate(-51.67 -483.53)"/><path class="cls-11" d="M347.63,720.07h0a8.39,8.39,0,0,1-8.39-8.39V701.6a8.39,8.39,0,0,1,8.39-8.39h0A8.39,8.39,0,0,1,356,701.6v10.08A8.39,8.39,0,0,1,347.63,720.07Z" transform="translate(-51.67 -483.53)"/></svg>